<?xml version="1.0" encoding="utf-8"?>
<!-- Generator: Adobe Illustrator 27.0.0, SVG Export Plug-In . SVG Version: 6.00 Build 0)  -->
<svg version="1.1" id="Layer_1" xmlns="http://www.w3.org/2000/svg" xmlns:xlink="http://www.w3.org/1999/xlink" x="0px" y="0px"
	 viewBox="0 0 6911 4747" style="enable-background:new 0 0 6911 4747;" xml:space="preserve">
<style type="text/css">
	.st0{display:none;fill:#F8E600;}
	.st1{display:none;fill:#7F1416;}
	.st2{display:none;}
	.st3{display:inline;}
	.st4{fill:#F8E600;}
	.st5{display:inline;fill:#7F1416;}
	.st6{display:none;fill:#231F20;}
	.st7{fill:#7F1416;}
	.st8{fill:#FFFFFF;}
	.st9{fill:#FFCC05;}
</style>
<rect x="-1592" y="3701" class="st0" width="11339" height="5669"/>
<rect x="-1592.21" y="3701" class="st1" width="11339" height="2822"/>
<rect x="2783" y="173" class="st6" width="75" height="283"/>
<rect x="4467" y="173" class="st6" width="75" height="283"/>
<g class="st2">
	<g class="st3">
		<path class="st7" d="M6479.89-88.1v2027.72c0,66.27-53.72,120-120,120H930.59c-66.27,0-120-53.72-120-120V-88.1
			c0-66.27,53.72-120,120-120h5429.3C6426.16-208.1,6479.89-154.37,6479.89-88.1z"/>
	</g>
	<g class="st3">
		<path class="st4" d="M1028.65,1898.38c-52.66,0-95.5-42.84-95.5-95.5V48.64c0-52.66,42.84-95.5,95.5-95.5h5233.18
			c52.66,0,95.5,42.84,95.5,95.5v1754.25c0,52.66-42.84,95.5-95.5,95.5H1028.65z"/>
		<path class="st8" d="M6261.83-38.41c48.07,0,87.04,38.97,87.04,87.04v1754.25c0,48.07-38.97,87.04-87.04,87.04H1028.65
			c-48.07,0-87.04-38.97-87.04-87.04V48.64c0-48.07,38.97-87.04,87.04-87.04H6261.83 M6261.83-55.32H1028.65
			c-57.32,0-103.95,46.63-103.95,103.95v1754.25c0,57.32,46.63,103.95,103.95,103.95h5233.18c57.32,0,103.95-46.63,103.95-103.95
			V48.64C6365.79-8.68,6319.15-55.32,6261.83-55.32L6261.83-55.32z"/>
	</g>
</g>
<g>
	<polygon class="st8" points="3457.93,161.94 307.57,1224 151.01,1432.93 151.01,3259.3 218.76,3452.27 760.39,3757.28 
		3059.42,4516.51 3283.98,4601.7 4027.67,4479.83 6549.5,3574.46 6692.34,3354.5 6775.84,3139.26 6775.84,2353.42 6775.84,1533.93 
		6692.34,1301.58 6218.69,1086.04 	"/>
	<path class="st7" d="M1996.99,2523.34c65.11,749.85,691.45,1336.15,1458.56,1336.15S4849,3273.18,4914.11,2523.34H1996.99z"/>
	<path class="st4" d="M5158.42,2477.54c-43.53,901.83-790.47,1621.88-1702.87,1621.88c-912.4,0-1659.31-719.95-1702.87-1621.77
		l-1445.12,0.11v674.16c0,148.59,102.47,291.6,243.05,339.64l2578.95,881.74c209.42,71.61,442.55,71.61,651.96,0
		c0-0.09,0-0.09,0-0.09l2579.06-881.76v0.11c140.58-48.15,242.94-191.27,242.94-339.86v-674.04L5158.42,2477.54z"/>
	<path class="st7" d="M3455.55,929.44c-767.11,0-1393.45,586.2-1458.56,1336.15h2917.12C4849,1515.64,4222.67,929.44,3455.55,929.44
		z"/>
	<path class="st7" d="M3455.55,361.83c-110.69,0-221.27,17.82-325.98,53.7L550.62,1297.37
		c-140.58,48.04-243.05,191.17-243.05,339.86v673.94h1445.12c43.56-901.71,790.47-1621.66,1702.87-1621.66
		c912.4,0,1659.34,719.95,1702.87,1621.66h1445.12v-674.04c0-148.59-102.36-291.83-242.94-339.98v0.22L3781.54,415.63
		c0-0.11,0-0.11,0-0.22C3676.83,379.64,3566.25,361.83,3455.55,361.83z"/>
	<path class="st7" d="M3455.55,272.47c119.87,0,239.75,19.76,354.7,59.03l2579.06,881.77c181.57,61.99,303.03,232.04,303.03,423.96
		V3151.8c0,191.93-121.46,361.75-303.03,423.86l-2579.06,881.85c-229.94,78.67-479.46,78.67-709.37,0l-2579.2-881.85
		c-181.46-62.11-302.92-231.93-302.92-423.86V1637.23c0-191.93,121.46-361.97,302.92-423.96l2579.2-881.77
		C3215.84,292.23,3335.68,272.47,3455.55,272.47z M3455.55,116.75c-136.95,0-273.77,22.51-405.06,67.36L471.41,1065.85
		c-244.01,83.47-408.48,313.49-408.48,571.38V3151.8c0,257.89,164.47,487.8,408.48,571.17l2579.09,881.96
		c262.56,89.76,547.56,89.76,810.12,0l2579.09-881.96c244.01-83.37,408.37-313.28,408.37-571.17V1637.23
		c0-257.89-164.36-487.91-408.37-571.38L3860.61,184.11C3729.35,139.27,3592.4,116.75,3455.55,116.75z"/>
	<g>
		<path class="st7" d="M3455.55,272.47c119.87,0,239.75,19.76,354.7,59.03l2579.06,881.77c181.57,61.99,303.03,232.04,303.03,423.96
			V3151.8c0,191.93-121.46,361.75-303.03,423.86l-2579.06,881.85c-229.94,78.67-479.46,78.67-709.37,0l-2579.2-881.85
			c-181.46-62.11-302.92-231.93-302.92-423.86V1637.23c0-191.93,121.46-361.97,302.92-423.96l2579.2-881.77
			C3215.84,292.23,3335.68,272.47,3455.55,272.47z M3455.55,116.75c-136.95,0-273.77,22.51-405.06,67.36L471.41,1065.85
			c-244.01,83.47-408.48,313.49-408.48,571.38V3151.8c0,257.89,164.47,487.8,408.48,571.17l2579.09,881.96
			c262.56,89.76,547.56,89.76,810.12,0l2579.09-881.96c244.01-83.37,408.37-313.28,408.37-571.17V1637.23
			c0-257.89-164.36-487.91-408.37-571.38L3860.61,184.11C3729.35,139.27,3592.4,116.75,3455.55,116.75z"/>
	</g>
	<circle class="st4" cx="3455.55" cy="2394.42" r="1593.9"/>
	<path class="st8" d="M2668.69,2394.51c-179.52-21.86-514.69,375.52-31.37,864.79l-176.65-37.35l-198.32-292.46l-41.21-339.64
		l272.95-278.68h131.49L2668.69,2394.51z"/>
	<path class="st8" d="M2853.24,2523.34c40.99-140.77,113.78-222.23,295.87-209.52l-115.28-130.31l-278.68,160.95L2853.24,2523.34z"
		/>
	<path class="st8" d="M3328.44,2363.98c80.25-158.92,244.09-149.22,369.95-61.99l-69.16-134.49l-173.68-68.42l-243.02,166.52
		l51.01,106.4L3328.44,2363.98z"/>
	<path class="st9" d="M3917.83,2273.37c138.34,80.06,169.17,227.56,166.63,278.16c-6.42,131.05-347.21,30.83-598.68,93.29
		l593.76,130.09c28.28,327.16-727.95,267.29-1051.67,370.72l1301.63,145.04l227.67-99.25l115.94-303.14l-78.56-479.05L4410,2265.59
		l-223.84,69.05l-186.46-69.05L3917.83,2273.37z"/>
	<path class="st7" d="M3838.95,2631.05c0,0,72.16-208.68,1.28-341.04c81.97-65.52,407.63,53.81,356.29,386.4
		c58.5-81.23,81.67-199.38,72.79-263.85c37.57-35.66,77.19-52.51,115.39-52.85c55.5,0.11,110.58,32.46,156.9,99.79
		c188.59,299.28,13.88,758.15-170.12,733.5c-661.15-88.8-1158.86-84-1802.9,0.95c-169.28,22.33-367.93-442.3-182.83-734.13
		c46.32-67.46,101.7-94.68,157.12-99.79c205.24-18.91,353.39,284.77,353.39,284.77s28.83-135.45-60.31-269.31
		c46.86-71.07,104.71-106.4,158.84-106.62c85.8,0.11,241.44,24.32,327.68,340.71c0,0,67.87-156.92-22.52-306.23
		C3464.11,2023.49,3851.32,2331,3838.95,2631.05z M3189.88,2178.26c-56.23-43.01-122.63-69.49-195.1-69.49h-0.22
		c-107.28,0.33-203.13,58.17-272.92,148.81c-52.63-35.99-113.26-57.66-178.78-57.66c-118.59,0-221.17,70.55-289.04,169.3
		c-264.07,419.16,41.1,1022.32,335.68,983.47c630.93-83.25,1114-87.85,1760.61-1.07c514.06,68.94,564.01-1127.35,59.13-1151.9
		c-93.81,0.19-159.14,24.87-215.48,66.92c-67.79-92.98-166.95-158.18-256.6-158.07c-89.54,0.08-151.68,21.97-205.89,59.87
		C3580.02,1980.37,3341.45,1979.85,3189.88,2178.26z"/>
	<path class="st7" d="M3485.78,2644.82c-255.1,0-496.43,33.61-684.73,70.85c-49.1,9.84-93.61,19.54-132.58,28.61
		c-95.64,22.22-92.41,42.49,5.77,39.71c531.98-14.95,968.11-27.32,1579.39-2.87c98.2,3.82,101.95-16.86,6.72-40.88
		c-29.57-7.38-62.22-15.16-97.66-22.95c-166.41-36.62-379.76-69.82-605.62-72.06C3533.27,2645.02,3509.47,2644.93,3485.78,2644.82z"
		/>
	<path class="st7" d="M2887.94,1342.84c14.62,103.97,64.13,186.68,105.23,256.93c40.99,70.23,71.73,128.4,75.69,172.04
		c3.94,43.66-5.77,84.98-85.5,157.12h57.11c85.17,0,194.47-62.74,194.88-147.06c0.11-8.33,0-16.78-1.07-24.98
		c-8.74-96.07-57.08-171.11-97.66-240.81c-40.66-69.59-75.55-133.53-84.43-196.3c-8.85-62.85,1.39-129.14,72.6-226.05
		C2867.75,1093.72,2876.41,1262.36,2887.94,1342.84z"/>
	<path class="st7" d="M3385.22,1463.03c40.99,70.33,71.51,128.4,75.47,172.03c4.04,43.78-5.57,84.98-85.2,157.12h44.1
		c92.41,0,211.66-69.16,207.39-160.42c0-3.83-0.87-7.68-0.87-11.61c-8.63-96.07-56.78-171.11-97.44-240.7
		c-40.66-69.71-75.47-133.53-84.32-196.38c-8.85-62.76,1.39-129.16,72.47-226.08C3457.47,961.14,3118.04,1005.13,3385.22,1463.03z"
		/>
	<path class="st7" d="M3785.69,1599.76c41.1,70.23,71.62,128.4,75.58,172.04c3.94,43.66-5.55,84.98-85.28,157.12h44.07
		c92.44,0,211.66-69.16,207.5-160.43c0-3.94-0.87-7.79-0.87-11.61c-8.74-96.07-56.89-171.11-97.55-240.81
		c-40.55-69.59-75.47-133.53-84.32-196.3c-8.85-62.85,1.39-129.14,72.57-226.05C3857.96,1097.87,3518.54,1141.86,3785.69,1599.76z"
		/>
</g>
</svg>
